<svg width="20" height="20" viewBox="0 0 20 20" fill="none" xmlns="http://www.w3.org/2000/svg">
<path d="M17.04 17.0433H14.0789V12.4022C14.0789 11.2956 14.0567 9.87111 12.5344 9.87111C10.9911 9.87111 10.7556 11.0756 10.7556 12.3211V17.0433H7.79333V7.5H10.6378V8.8H10.6767C11.0744 8.05111 12.0411 7.25889 13.4856 7.25889C16.4856 7.25889 17.0411 9.23444 17.0411 11.8044L17.04 17.0433ZM4.44889 6.19444C4.22284 6.19474 3.99896 6.15041 3.79007 6.06401C3.58119 5.9776 3.39141 5.85082 3.23162 5.69093C3.07183 5.53104 2.94517 5.34118 2.8589 5.13224C2.77263 4.9233 2.72845 4.69938 2.72889 4.47333C2.72911 4.13315 2.8302 3.80067 3.01938 3.51794C3.20856 3.23521 3.47733 3.01493 3.7917 2.88495C4.10607 2.75497 4.45193 2.72113 4.78553 2.78771C5.11914 2.85429 5.42551 3.01831 5.6659 3.25901C5.90629 3.49971 6.06991 3.80629 6.13606 4.13998C6.20221 4.47367 6.16792 4.81948 6.03754 5.13369C5.90715 5.44789 5.68652 5.71638 5.40355 5.90519C5.12057 6.094 4.78796 6.19466 4.44778 6.19444H4.44889ZM5.93333 17.0433H2.96333V7.5H5.93333V17.0433ZM18.5222 0H1.47778C0.66 0 0 0.644444 0 1.44111V18.5589C0 19.3556 0.66 20 1.47556 20H18.5189C19.3333 20 20 19.3556 20 18.5589V1.44111C20 0.645555 19.3333 0 18.5178 0H18.5222Z" fill="#FEBF5E"/>
</svg>
