<svg width="15" height="15" viewBox="0 0 15 15" fill="none" xmlns="http://www.w3.org/2000/svg">
<path d="M13.5511 14.7653L8.77841 9.98577C8.35227 10.3272 7.86222 10.5974 7.30824 10.7966C6.75426 10.9957 6.16477 11.0953 5.53977 11.0953C3.99148 11.0953 2.68125 10.5582 1.60909 9.48393C0.536932 8.40967 0.000568182 7.09758 0 5.54765C0 3.99715 0.536364 2.68506 1.60909 1.61138C2.68182 0.537696 3.99205 0.00056899 5.53977 0C7.08807 0 8.3983 0.537127 9.47045 1.61138C10.5426 2.68563 11.079 3.99772 11.0795 5.54765C11.0795 6.17354 10.9801 6.76387 10.7812 7.31863C10.5824 7.8734 10.3125 8.36415 9.97159 8.7909L14.7656 13.5917C14.9219 13.7482 15 13.9403 15 14.1679C15 14.3954 14.9148 14.5946 14.7443 14.7653C14.5881 14.9218 14.3892 15 14.1477 15C13.9062 15 13.7074 14.9218 13.5511 14.7653ZM5.53977 9.38834C6.60511 9.38834 7.51079 9.01479 8.25682 8.26771C9.00284 7.52063 9.37557 6.61394 9.375 5.54765C9.375 4.4808 9.00199 3.57383 8.25597 2.82674C7.50994 2.07966 6.60455 1.7064 5.53977 1.70697C4.47443 1.70697 3.56875 2.08051 2.82273 2.8276C2.0767 3.57468 1.70398 4.48137 1.70455 5.54765C1.70455 6.61451 2.07756 7.52148 2.82358 8.26856C3.5696 9.01565 4.475 9.3889 5.53977 9.38834Z" fill="#282828"/>
</svg>
