<svg width="1071" height="166" viewBox="0 0 1071 166" fill="none" xmlns="http://www.w3.org/2000/svg">
<path d="M127.038 137.094C116.631 147.792 103.371 155.078 88.9354 158.03C74.4998 160.982 59.537 159.467 45.939 153.677C32.341 147.887 20.7186 138.081 12.5416 125.501C4.3645 112.921 9.06486e-07 98.1303 0 83C-9.06485e-07 67.8697 4.36449 53.0792 12.5416 40.4989C20.7186 27.9185 32.341 18.1133 45.939 12.3232C59.537 6.53311 74.4998 5.01816 88.9353 7.96992C103.371 10.9217 116.631 18.2076 127.038 28.9063L82.8301 74.3517C81.1662 72.6413 79.0462 71.4764 76.7384 71.0045C74.4305 70.5326 72.0383 70.7748 69.8643 71.7005C67.6903 72.6262 65.8322 74.1938 64.5249 76.2051C63.2175 78.2164 62.5198 80.581 62.5198 83C62.5198 85.419 63.2175 87.7836 64.5249 89.7949C65.8322 91.8062 67.6903 93.3738 69.8643 94.2995C72.0383 95.2252 74.4305 95.4674 76.7384 94.9955C79.0462 94.5236 81.1662 93.3587 82.8301 91.6483L127.038 137.094Z" fill="#F2BE22"/>
<rect width="99.6719" height="64.0748" transform="matrix(0.697282 0.716797 -0.697282 0.716797 134.54 35.3682)" fill="#2D3E40"/>
<rect width="99.6719" height="64.0748" transform="matrix(0.697282 -0.716797 0.697282 0.716797 115.18 106.999)" fill="#387373"/>
<rect width="99.6719" height="64.0748" transform="matrix(-0.697282 -0.716797 0.697282 -0.716797 209.5 152.928)" fill="#93BFB7"/>
<rect width="99.6719" height="64.0748" transform="matrix(0.697282 -0.716797 0.697282 0.716797 164.822 106.999)" fill="#E4F2E7"/>
<path d="M343.698 132.536C331.751 132.536 322.877 128.525 317.074 120.504C311.357 112.397 308.498 101.005 308.498 86.328C308.498 71.6507 311.357 60.3013 317.074 52.28C322.877 44.1733 331.751 40.12 343.698 40.12C348.306 40.12 352.359 40.76 355.858 42.04C359.442 43.2347 362.514 44.9413 365.074 47.16C367.634 49.3787 369.725 52.0667 371.346 55.224C373.053 58.3813 374.375 61.9227 375.314 65.848L357.394 70.2C356.882 68.0667 356.285 66.104 355.602 64.312C354.919 62.52 354.023 60.984 352.914 59.704C351.89 58.424 350.567 57.4427 348.946 56.76C347.41 55.992 345.533 55.608 343.314 55.608C338.109 55.608 334.397 57.656 332.178 61.752C330.045 65.7627 328.978 71.352 328.978 78.52V94.136C328.978 101.304 330.045 106.936 332.178 111.032C334.397 115.043 338.109 117.048 343.314 117.048C347.751 117.048 350.951 115.683 352.914 112.952C354.962 110.221 356.455 106.723 357.394 102.456L375.314 106.808C374.375 110.733 373.053 114.275 371.346 117.432C369.725 120.589 367.634 123.32 365.074 125.624C362.514 127.843 359.442 129.549 355.858 130.744C352.359 131.939 348.306 132.536 343.698 132.536ZM391.776 131V41.656H411.104V115.256H449.504V131H391.776ZM495.15 132.536C483.203 132.536 474.371 128.483 468.654 120.376C463.022 112.269 460.206 100.92 460.206 86.328C460.206 71.736 463.022 60.3867 468.654 52.28C474.371 44.1733 483.203 40.12 495.15 40.12C507.097 40.12 515.886 44.1733 521.518 52.28C527.235 60.3867 530.094 71.736 530.094 86.328C530.094 100.92 527.235 112.269 521.518 120.376C515.886 128.483 507.097 132.536 495.15 132.536ZM495.15 117.048C500.611 117.048 504.366 115.043 506.414 111.032C508.547 106.936 509.614 101.261 509.614 94.008V78.52C509.614 71.352 508.547 65.7627 506.414 61.752C504.366 57.656 500.611 55.608 495.15 55.608C489.689 55.608 485.891 57.656 483.758 61.752C481.71 65.7627 480.686 71.352 480.686 78.52V94.136C480.686 101.304 481.71 106.936 483.758 111.032C485.891 115.043 489.689 117.048 495.15 117.048ZM570.492 132.536C562.983 132.536 556.455 131.299 550.908 128.824C545.361 126.349 540.881 122.979 537.468 118.712L548.604 106.424C551.847 110.008 555.388 112.653 559.228 114.36C563.153 116.067 567.121 116.92 571.132 116.92C575.74 116.92 579.239 115.896 581.628 113.848C584.017 111.8 585.212 108.856 585.212 105.016C585.212 101.859 584.273 99.4693 582.396 97.848C580.604 96.2267 577.532 95.0747 573.18 94.392L563.836 92.856C555.815 91.4907 550.012 88.5467 546.428 84.024C542.844 79.416 541.052 73.8267 541.052 67.256C541.052 58.6373 543.868 51.9813 549.5 47.288C555.132 42.5093 563.025 40.12 573.18 40.12C580.092 40.12 586.108 41.1867 591.228 43.32C596.348 45.4533 600.487 48.3547 603.644 52.024L592.764 64.184C590.375 61.5387 587.559 59.4907 584.316 58.04C581.073 56.504 577.404 55.736 573.308 55.736C564.689 55.736 560.38 59.2773 560.38 66.36C560.38 69.432 561.319 71.736 563.196 73.272C565.159 74.808 568.316 75.96 572.668 76.728L582.012 78.392C589.265 79.672 594.855 82.4027 598.78 86.584C602.705 90.7653 604.668 96.3973 604.668 103.48C604.668 107.661 603.943 111.544 602.492 115.128C601.041 118.627 598.865 121.699 595.964 124.344C593.063 126.904 589.479 128.909 585.212 130.36C581.031 131.811 576.124 132.536 570.492 132.536ZM620.49 131V41.656H677.578V57.4H639.69V77.88H676.298V93.624H639.69V115.256H677.578V131H620.49ZM693.912 131L688.408 41.656H704.92L707.48 95.16L708.248 112.056H709.4L717.08 61.112H734.36L742.04 112.056H743.192L743.96 95.672L746.52 41.656H762.392L756.888 131H732.568L726.04 81.72H724.76L718.232 131H693.912ZM819.43 131L813.798 109.496H789.35L783.846 131H764.39L788.582 41.656H815.718L839.91 131H819.43ZM802.15 60.216H801.126L792.422 94.008H810.854L802.15 60.216ZM888.5 57.4V131H869.3V57.4H843.572V41.656H914.228V57.4H888.5ZM957.698 132.536C945.751 132.536 936.877 128.525 931.074 120.504C925.357 112.397 922.498 101.005 922.498 86.328C922.498 71.6507 925.357 60.3013 931.074 52.28C936.877 44.1733 945.751 40.12 957.698 40.12C962.306 40.12 966.359 40.76 969.858 42.04C973.442 43.2347 976.514 44.9413 979.074 47.16C981.634 49.3787 983.725 52.0667 985.346 55.224C987.053 58.3813 988.375 61.9227 989.314 65.848L971.394 70.2C970.882 68.0667 970.285 66.104 969.602 64.312C968.919 62.52 968.023 60.984 966.914 59.704C965.89 58.424 964.567 57.4427 962.946 56.76C961.41 55.992 959.533 55.608 957.314 55.608C952.109 55.608 948.397 57.656 946.178 61.752C944.045 65.7627 942.978 71.352 942.978 78.52V94.136C942.978 101.304 944.045 106.936 946.178 111.032C948.397 115.043 952.109 117.048 957.314 117.048C961.751 117.048 964.951 115.683 966.914 112.952C968.962 110.221 970.455 106.723 971.394 102.456L989.314 106.808C988.375 110.733 987.053 114.275 985.346 117.432C983.725 120.589 981.634 123.32 979.074 125.624C976.514 127.843 973.442 129.549 969.858 130.744C966.359 131.939 962.306 132.536 957.698 132.536ZM1043.66 93.624H1021.14V131H1001.81V41.656H1021.14V77.88H1043.66V41.656H1062.99V131H1043.66V93.624Z" fill="white"/>
</svg>
