<svg width="24" height="24" viewBox="0 0 24 24" fill="none" xmlns="http://www.w3.org/2000/svg">
<path fill-rule="evenodd" clip-rule="evenodd" d="M11.9128 1.5C10.8393 1.5 9.80384 1.66243 8.82951 1.96405C8.94468 2.0525 9.05542 2.14725 9.16116 2.24804C9.70791 2.76915 10.1001 3.43118 10.2944 4.16107C10.4887 4.89096 10.4777 5.66034 10.2624 6.38434C10.0471 7.10833 9.63607 7.75879 9.07454 8.26394C8.51301 8.7691 7.82285 9.10933 7.0802 9.24708C6.33756 9.38483 5.57129 9.31475 4.86595 9.04458C4.1606 8.77441 3.5436 8.31465 3.08301 7.71602C2.93046 7.51775 2.79704 7.30679 2.68388 7.08603C1.92773 8.52885 1.5 10.1709 1.5 11.9128C1.5 17.6636 6.16196 22.3256 11.9128 22.3256C14.3585 22.3256 16.6072 21.4824 18.3842 20.0709C18.1056 19.9463 17.8389 19.7942 17.5884 19.6162C16.9854 19.1879 16.4932 18.6222 16.1524 17.9658C15.8116 17.3095 15.632 16.5814 15.6285 15.8418C15.625 15.1023 15.7977 14.3725 16.1322 13.7129C16.4668 13.0534 16.9536 12.483 17.5525 12.049C18.1513 11.615 18.8449 11.3298 19.5758 11.2171C20.3067 11.1044 21.054 11.1675 21.7557 11.401C21.9498 11.4655 22.1389 11.5427 22.3219 11.6316C22.1729 6.01077 17.5696 1.5 11.9128 1.5ZM3.71124 5.49638C4.60805 4.35168 5.7393 3.39947 7.03273 2.71201C7.44187 2.82643 7.81757 3.03964 8.12626 3.33385C8.47298 3.66431 8.72167 4.08413 8.8449 4.54698C8.96813 5.00984 8.96111 5.49774 8.8246 5.95685C8.6881 6.41596 8.42742 6.82845 8.07133 7.14879C7.71524 7.46913 7.27758 7.68488 6.80664 7.77224C6.3357 7.85959 5.84977 7.81515 5.40249 7.64383C4.9552 7.4725 4.56393 7.18094 4.27185 6.80133C3.97977 6.42171 3.79824 5.96878 3.74728 5.49253L3.71124 5.49638ZM22.2296 13.3325C21.9391 15.4635 21.0038 17.3895 19.6268 18.9072C19.2067 18.8176 18.8085 18.643 18.4571 18.3934C18.0484 18.103 17.7147 17.7195 17.4836 17.2746C17.2526 16.8296 17.1308 16.3361 17.1285 15.8347C17.1261 15.3334 17.2431 14.8387 17.47 14.3915C17.6968 13.9444 18.0268 13.5577 18.4327 13.2635C18.8387 12.9693 19.3089 12.776 19.8044 12.6996C20.2999 12.6232 20.8064 12.6659 21.2821 12.8242C21.6257 12.9385 21.946 13.1108 22.2296 13.3325ZM0 11.9128C0 5.33354 5.33354 0 11.9128 0C18.492 0 23.8256 5.33354 23.8256 11.9128C23.8256 18.492 18.492 23.8256 11.9128 23.8256C5.33354 23.8256 0 18.492 0 11.9128ZM15.2696 8.50918C15.5482 8.20269 15.5256 7.72835 15.2191 7.44973C14.9126 7.1711 14.4383 7.1937 14.1597 7.50019L14.1485 7.51247C13.8699 7.81897 13.8925 8.29331 14.199 8.57193C14.5055 8.85056 14.9798 8.82796 15.2585 8.52146L15.2696 8.50918ZM9.68023 12.2791C8.88921 12.2791 8.13058 12.5933 7.57125 13.1526C7.01191 13.712 6.69767 14.4706 6.69767 15.2616C6.69767 16.0526 7.01191 16.8113 7.57125 17.3706C8.13058 17.9299 8.88921 18.2442 9.68023 18.2442C10.4713 18.2442 11.2299 17.9299 11.7892 17.3706C12.3486 16.8113 12.6628 16.0526 12.6628 15.2616C12.6628 14.4706 12.3486 13.712 11.7892 13.1526C11.2299 12.5933 10.4713 12.2791 9.68023 12.2791ZM8.63191 14.2133C8.90994 13.9353 9.28703 13.7791 9.68023 13.7791C10.0734 13.7791 10.4505 13.9353 10.7286 14.2133C11.0066 14.4913 11.1628 14.8684 11.1628 15.2616C11.1628 15.6548 11.0066 16.0319 10.7286 16.3099C10.4505 16.588 10.0734 16.7442 9.68023 16.7442C9.28703 16.7442 8.90994 16.588 8.63191 16.3099C8.35387 16.0319 8.19767 15.6548 8.19767 15.2616C8.19767 14.8684 8.35387 14.4913 8.63191 14.2133Z" fill="white"/>
</svg>
