<svg width="26" height="26" viewBox="0 0 26 26" fill="none" xmlns="http://www.w3.org/2000/svg">
<path d="M11.625 1.9375V0.96875C11.625 0.711822 11.7271 0.465416 11.9087 0.28374C12.0904 0.102064 12.3368 0 12.5938 0C12.8507 0 13.0971 0.102064 13.2788 0.28374C13.4604 0.465416 13.5625 0.711822 13.5625 0.96875V1.9375C13.5625 2.19443 13.4604 2.44083 13.2788 2.62251C13.0971 2.80419 12.8507 2.90625 12.5938 2.90625C12.3368 2.90625 12.0904 2.80419 11.9087 2.62251C11.7271 2.44083 11.625 2.19443 11.625 1.9375ZM20.3438 12.5938C20.3438 14.1266 19.8892 15.6249 19.0376 16.8994C18.1861 18.1739 16.9757 19.1672 15.5595 19.7538C14.1434 20.3404 12.5852 20.4939 11.0818 20.1948C9.57845 19.8958 8.19753 19.1577 7.11367 18.0738C6.02982 16.99 5.2917 15.6091 4.99266 14.1057C4.69363 12.6023 4.8471 11.0441 5.43368 9.62795C6.02026 8.21183 7.0136 7.00144 8.28808 6.14986C9.56256 5.29828 11.0609 4.84375 12.5938 4.84375C14.6485 4.84599 16.6184 5.66323 18.0714 7.11615C19.5243 8.56907 20.3415 10.539 20.3438 12.5938ZM18.4062 12.5938C18.4063 11.4441 18.0654 10.3204 17.4267 9.3645C16.788 8.40864 15.8802 7.66363 14.8181 7.2237C13.756 6.78377 12.5873 6.66866 11.4598 6.89294C10.3323 7.11721 9.29658 7.6708 8.48369 8.48369C7.6708 9.29658 7.11721 10.3323 6.89294 11.4598C6.66866 12.5873 6.78377 13.756 7.2237 14.8181C7.66363 15.8802 8.40864 16.788 9.3645 17.4267C10.3204 18.0654 11.4441 18.4062 12.5938 18.4062C14.1348 18.4046 15.6123 17.7917 16.702 16.702C17.7917 15.6123 18.4046 14.1348 18.4062 12.5938ZM4.15836 5.52914C4.34014 5.71092 4.58668 5.81304 4.84375 5.81304C5.10082 5.81304 5.34736 5.71092 5.52914 5.52914C5.71092 5.34736 5.81304 5.10082 5.81304 4.84375C5.81304 4.58668 5.71092 4.34014 5.52914 4.15836L4.56039 3.18961C4.37861 3.00783 4.13207 2.90571 3.875 2.90571C3.61793 2.90571 3.37139 3.00783 3.18961 3.18961C3.00783 3.37139 2.90571 3.61793 2.90571 3.875C2.90571 4.13207 3.00783 4.37861 3.18961 4.56039L4.15836 5.52914ZM4.15836 19.6584L3.18961 20.6271C3.00783 20.8089 2.90571 21.0554 2.90571 21.3125C2.90571 21.5696 3.00783 21.8161 3.18961 21.9979C3.37139 22.1797 3.61793 22.2818 3.875 22.2818C4.13207 22.2818 4.37861 22.1797 4.56039 21.9979L5.52914 21.0291C5.61915 20.9391 5.69055 20.8323 5.73926 20.7147C5.78797 20.5971 5.81304 20.471 5.81304 20.3438C5.81304 20.2165 5.78797 20.0904 5.73926 19.9728C5.69055 19.8552 5.61915 19.7484 5.52914 19.6584C5.43913 19.5684 5.33228 19.497 5.21468 19.4482C5.09708 19.3995 4.97104 19.3745 4.84375 19.3745C4.71646 19.3745 4.59042 19.3995 4.47282 19.4482C4.35522 19.497 4.24837 19.5684 4.15836 19.6584ZM20.3438 5.8125C20.471 5.8126 20.597 5.78763 20.7146 5.73901C20.8322 5.69039 20.9391 5.61907 21.0291 5.52914L21.9979 4.56039C22.1797 4.37861 22.2818 4.13207 22.2818 3.875C22.2818 3.61793 22.1797 3.37139 21.9979 3.18961C21.8161 3.00783 21.5696 2.90571 21.3125 2.90571C21.0554 2.90571 20.8089 3.00783 20.6271 3.18961L19.6584 4.15836C19.5227 4.29384 19.4303 4.46653 19.3929 4.65455C19.3555 4.84257 19.3746 5.03747 19.448 5.21458C19.5214 5.39169 19.6457 5.54304 19.8051 5.64948C19.9646 5.75592 20.152 5.81265 20.3438 5.8125ZM21.0291 19.6584C20.8474 19.4766 20.6008 19.3745 20.3438 19.3745C20.0867 19.3745 19.8401 19.4766 19.6584 19.6584C19.4766 19.8401 19.3745 20.0867 19.3745 20.3438C19.3745 20.6008 19.4766 20.8474 19.6584 21.0291L20.6271 21.9979C20.7171 22.0879 20.824 22.1593 20.9416 22.208C21.0592 22.2567 21.1852 22.2818 21.3125 22.2818C21.4398 22.2818 21.5658 22.2567 21.6834 22.208C21.801 22.1593 21.9079 22.0879 21.9979 21.9979C22.0879 21.9079 22.1593 21.801 22.208 21.6834C22.2567 21.5658 22.2818 21.4398 22.2818 21.3125C22.2818 21.1852 22.2567 21.0592 22.208 20.9416C22.1593 20.824 22.0879 20.7171 21.9979 20.6271L21.0291 19.6584ZM1.9375 11.625H0.96875C0.711822 11.625 0.465416 11.7271 0.28374 11.9087C0.102064 12.0904 0 12.3368 0 12.5938C0 12.8507 0.102064 13.0971 0.28374 13.2788C0.465416 13.4604 0.711822 13.5625 0.96875 13.5625H1.9375C2.19443 13.5625 2.44083 13.4604 2.62251 13.2788C2.80419 13.0971 2.90625 12.8507 2.90625 12.5938C2.90625 12.3368 2.80419 12.0904 2.62251 11.9087C2.44083 11.7271 2.19443 11.625 1.9375 11.625ZM12.5938 22.2812C12.3368 22.2812 12.0904 22.3833 11.9087 22.565C11.7271 22.7467 11.625 22.9931 11.625 23.25V24.2188C11.625 24.4757 11.7271 24.7221 11.9087 24.9038C12.0904 25.0854 12.3368 25.1875 12.5938 25.1875C12.8507 25.1875 13.0971 25.0854 13.2788 24.9038C13.4604 24.7221 13.5625 24.4757 13.5625 24.2188V23.25C13.5625 22.9931 13.4604 22.7467 13.2788 22.565C13.0971 22.3833 12.8507 22.2812 12.5938 22.2812ZM24.2188 11.625H23.25C22.9931 11.625 22.7467 11.7271 22.565 11.9087C22.3833 12.0904 22.2812 12.3368 22.2812 12.5938C22.2812 12.8507 22.3833 13.0971 22.565 13.2788C22.7467 13.4604 22.9931 13.5625 23.25 13.5625H24.2188C24.4757 13.5625 24.7221 13.4604 24.9038 13.2788C25.0854 13.0971 25.1875 12.8507 25.1875 12.5938C25.1875 12.3368 25.0854 12.0904 24.9038 11.9087C24.7221 11.7271 24.4757 11.625 24.2188 11.625Z" fill="white"/>
</svg>
