<svg width="17" height="20" viewBox="0 0 17 20" fill="none" xmlns="http://www.w3.org/2000/svg">
<path d="M6.00435 12.6468V7.34682L11.0043 9.99682L6.00435 12.6468ZM13.7743 8.31682C13.0043 7.99682 12.5743 7.81682 12.5743 7.81682L14.0043 7.05682C15.8443 6.09682 16.5343 3.82682 15.5643 1.99682C14.5943 0.166817 12.3243 -0.533183 10.4943 0.436817L2.00435 4.93682C0.714348 5.61682 -0.0656524 6.97682 0.00434756 8.42682C0.0743476 9.84682 0.934347 11.0968 2.22435 11.6768C2.25435 11.6868 3.42435 12.1768 3.42435 12.1768L2.00435 12.9268C0.174348 13.8968 -0.525652 16.1668 0.444348 17.9968C1.41435 19.8268 3.68435 20.5268 5.51435 19.5568L14.0143 15.0568C15.3043 14.3768 16.0743 13.0168 16.0043 11.5668C15.9343 10.1468 15.0643 8.88682 13.7743 8.31682V8.31682ZM13.5443 14.1768L5.04435 18.6768C3.70435 19.3868 2.03435 18.8768 1.32435 17.5368C0.614348 16.1968 1.12435 14.5268 2.46435 13.8168L4.50435 12.7368V11.5268L3.81435 11.2468L2.70435 10.7868C1.71435 10.3768 1.05435 9.43682 1.00435 8.37682C0.954348 7.31682 1.52435 6.31682 2.46435 5.81682L10.9643 1.31682C12.3043 0.606817 13.9743 1.11682 14.6843 2.45682C15.3943 3.79682 14.8843 5.46682 13.5443 6.17682L11.5043 7.25682V8.46682L13.3043 9.20682C14.2943 9.61682 14.9543 10.5568 15.0043 11.6168C15.0543 12.6768 14.4843 13.6768 13.5443 14.1768Z" fill="#323232"/>
</svg>
