<svg width="96" height="96" viewBox="0 0 96 96" fill="none" xmlns="http://www.w3.org/2000/svg">
<path d="M0 8C0 3.58172 3.58172 0 8 0H88C92.4183 0 96 3.58172 96 8V88C96 92.4183 92.4183 96 88 96H8C3.58172 96 0 92.4183 0 88V8Z" fill="url(#paint0_linear_42_334)"/>
<path d="M49.5164 68.1696C48.3726 69.2079 46.6274 69.2079 45.4836 68.1696L44.0925 66.9068C31.99 55.9635 24 48.7226 24 39.8883C24 32.6474 29.687 27 36.925 27C39.8111 27 42.6153 27.9456 44.9161 29.5485C46.4216 30.5972 48.5784 30.5972 50.0839 29.5485C52.3847 27.9456 55.1889 27 58.075 27C65.313 27 71 32.6474 71 39.8883C71 48.7226 63.01 55.9635 50.9075 66.9068L49.5164 68.1696Z" fill="white"/>
<defs>
<linearGradient id="paint0_linear_42_334" x1="2.5" y1="2.22032" x2="46.926" y2="80.9717" gradientUnits="userSpaceOnUse">
<stop stop-color="#5120F2"/>
<stop offset="0.822249" stop-color="#B8DADC"/>
</linearGradient>
</defs>
</svg>
